<svg width="32" height="32" viewBox="0 0 32 32" fill="none" xmlns="http://www.w3.org/2000/svg">
<g clip-path="url(#clip0_3_39)">
<path d="M31.12 9.52C30.48 8.8 29.6 8.32 28.64 8.32H16.32C15.92 8.32 15.52 8.64 15.52 9.12C15.52 9.6 15.92 9.92 16.32 9.92H28.64C29.12 9.92 29.6 10.16 29.92 10.48C30.24 10.88 30.4 11.36 30.24 11.84L29.52 15.84H20.72C20.32 15.84 19.92 16.16 19.92 16.64C19.92 17.12 20.32 17.44 20.72 17.44H29.28L28.56 21.28C28.48 21.84 27.92 22.24 27.36 22.24H12C11.44 22.24 10.96 21.84 10.8 21.28L7.67998 3.92C7.59998 3.52 7.27998 3.28 6.87998 3.28H0.719983C0.319983 3.28 -0.0800171 3.6 -0.0800171 4.08C-0.0800171 4.56 0.319983 4.88 0.719983 4.88H6.23998L9.27998 21.68C9.43998 22.8 10.24 23.6 11.28 23.92C10.88 24.48 10.56 25.2 10.56 26C10.56 28 12.16 29.6 14.16 29.6C16.16 29.6 17.76 28 17.76 26C17.76 25.28 17.52 24.56 17.12 24H22C21.6 24.56 21.36 25.28 21.36 26C21.36 28 22.96 29.6 24.96 29.6C26.96 29.6 28.56 28 28.56 26C28.56 25.2 28.32 24.48 27.92 23.92C28.96 23.68 29.84 22.8 30.08 21.68L31.84 12.24C32 11.28 31.76 10.32 31.12 9.52ZM16.16 25.92C16.16 27.04 15.28 27.92 14.16 27.92C13.04 27.92 12.16 27.04 12.16 25.92C12.16 24.8 13.04 23.92 14.16 23.92C15.28 23.92 16.16 24.8 16.16 25.92ZM25.04 27.92C23.92 27.92 23.04 27.04 23.04 25.92C23.04 24.8 23.92 23.92 25.04 23.92C26.16 23.92 27.04 24.8 27.04 25.92C27.04 27.04 26.16 27.92 25.04 27.92Z" fill="#8C7FDE" fill-opacity="0.7"/>
</g>
<defs>
<clipPath id="clip0_3_39">
<rect width="32" height="32" fill="white"/>
</clipPath>
</defs>
</svg>
