<svg width="154" height="79" viewBox="0 0 154 79" fill="none" xmlns="http://www.w3.org/2000/svg">
<g clip-path="url(#clip0_78_11)">
<path fill-rule="evenodd" clip-rule="evenodd" d="M37.8686 32.512L35.6777 39.3159H16.5168L16.8173 38.1486C17.1511 38.1263 17.5961 38.0819 18.1594 38.0096C18.7172 37.9373 19.0916 37.8651 19.2714 37.7928C19.6646 37.626 19.958 37.4148 20.1586 37.1536C20.3635 36.8979 20.516 36.5643 20.6191 36.1641L24.8927 19.5658C24.9843 19.2101 25.0047 18.8932 24.9596 18.6153C24.9089 18.3373 24.716 18.115 24.3838 17.9371C24.125 17.7981 23.7617 17.6759 23.3012 17.5647C22.8337 17.4591 22.4561 17.3924 22.1673 17.3701L22.4678 16.2028H40.3335L38.8952 21.7893H37.6778C37.6742 20.9611 37.4278 20.0828 36.9498 19.1545C36.4662 18.2262 35.9127 17.7203 35.2797 17.6314C34.9562 17.5925 34.5645 17.5591 34.1033 17.5369C33.6422 17.5146 33.1169 17.5035 32.5165 17.5035H28.8922L26.5308 26.6754H29.1322C29.966 26.6754 30.5919 26.5976 31.0211 26.442C31.4462 26.2808 31.8526 26.0195 32.2375 25.6471C32.5567 25.3358 32.8711 24.9133 33.1739 24.3852C33.4752 23.8627 33.7151 23.3624 33.8909 22.8955H35.1083L32.7769 31.9506H31.5595C31.6496 31.4281 31.6745 30.8777 31.6343 30.2996C31.5956 29.716 31.5043 29.2935 31.3644 29.0378C31.1411 28.6098 30.8278 28.3374 30.434 28.2041C30.0389 28.0762 29.4891 28.0094 28.7887 28.0094H26.1873L24.4026 34.9412C24.2237 35.636 24.1335 36.1808 24.1249 36.581C24.1219 36.9812 24.2322 37.287 24.4627 37.4926C24.6878 37.6983 25.0425 37.8317 25.5104 37.8929C25.9837 37.954 26.6715 37.9818 27.5719 37.9818C27.9277 37.9818 28.4001 37.9818 28.9838 37.9818C29.5675 37.9818 30.0679 37.9596 30.4796 37.9151C30.9024 37.8706 31.3504 37.7928 31.8182 37.6816C32.2874 37.5649 32.6388 37.4093 32.8723 37.2147C33.5001 36.6977 34.2259 35.9084 35.0496 34.8467C35.8662 33.7905 36.4182 33.0067 36.6957 32.512H37.8686V32.512ZM101.147 32.1053C100.229 33.3335 98.97 34.3032 97.4576 34.6717C96.5973 34.8809 95.6686 34.8449 94.8671 34.4461C94.0459 34.037 93.4969 33.314 93.2878 32.4243C92.7317 30.0562 94.6306 27.3326 96.1153 25.6449C96.6467 25.0411 97.1944 24.4516 97.7418 23.8621C98.749 22.7782 101.446 20.0539 101.442 18.5508C101.441 18.1941 101.706 17.9526 101.951 17.7358C102.318 17.412 102.79 17.1335 103.21 17.5878C103.268 17.6494 103.312 17.7167 103.34 17.7861C104.567 20.3366 105.496 22.9556 104.375 25.7322C104.093 26.4301 103.678 27.0762 103.147 27.6112C102.644 28.1193 101.965 28.6773 101.26 28.8547C100.652 29.0078 100.019 28.8984 99.5724 28.4353C98.3718 27.1908 99.1746 25.8829 100.207 24.8921C100.697 24.4208 101.227 23.9947 101.759 23.5702C102.01 23.3693 102.262 23.1678 102.508 22.9591C102.632 22.8543 102.766 22.7541 102.911 22.6934C102.83 21.9637 102.587 21.4112 102.32 20.7741C102.137 21.0012 101.94 21.2262 101.794 21.4015C101.246 22.0603 100.688 22.7125 100.128 23.362C99.3035 24.321 98.4736 25.2769 97.638 26.2261C96.5346 27.48 94.7931 29.8496 95.2087 31.6222C95.3202 32.098 95.5927 32.4737 96.0336 32.6932C96.5269 32.9382 97.119 32.9373 97.6451 32.8093C100.493 32.1165 99.6443 30.4099 101.184 29.5156C101.678 29.2283 102.229 29.3121 102.34 29.9581C102.445 30.6508 102.861 30.9381 103.276 31.4588C103.681 31.9685 104.217 32.3729 104.829 32.599C105.359 32.795 105.947 32.8545 106.497 32.7111C106.735 32.6495 107 32.5498 107.191 32.392C109.454 30.5269 107.386 26.5391 106.257 24.5842C104.43 21.4206 103.747 17.3688 105.933 14.183C106.048 14.0155 106.236 13.8505 106.393 13.719C107.249 13 108.119 13.83 107.623 14.5521C105.791 17.2213 106.506 20.7673 108.023 23.395C109.994 26.8079 111.544 30.7351 107.911 33.7313C107.448 34.1126 106.916 34.4163 106.333 34.5684C105.496 34.7863 104.61 34.7118 103.803 34.4137C102.946 34.0972 102.196 33.5369 101.628 32.8231C101.448 32.5971 101.288 32.3565 101.147 32.1053V32.1053ZM102.825 24.6309C102.683 24.7471 102.539 24.8616 102.395 24.9763C102.067 25.2383 101.728 25.4959 101.426 25.7862C101.029 26.167 100.668 26.4903 101.131 26.9698C101.199 27.0412 101.347 27.0171 101.433 26.9955C101.524 26.9728 101.737 26.9061 101.805 26.8381C102.12 26.52 102.357 26.0771 102.523 25.665C102.658 25.3299 102.757 24.984 102.825 24.6309V24.6309ZM135.14 55.5733C135.483 55.968 135.712 56.4183 135.82 56.9241C135.928 57.4355 135.883 58.0637 135.692 58.803C135.31 60.2873 134.441 61.5047 133.086 62.4497C131.725 63.3946 130.164 63.8671 128.396 63.8671C127.462 63.8671 126.645 63.6948 125.943 63.3557C125.242 63.011 124.762 62.6942 124.503 62.4052L123.902 63.4669H122.679L123.952 57.8969H125.075C125.055 58.3194 125.111 58.8142 125.25 59.3756C125.387 59.9426 125.595 60.454 125.883 60.9099C126.184 61.3824 126.585 61.7882 127.097 62.1106C127.602 62.4386 128.228 62.5998 128.967 62.5998C130.006 62.5998 130.873 62.3663 131.556 61.8938C132.243 61.4268 132.701 60.7487 132.926 59.8759C133.043 59.4201 133.056 59.0254 132.958 58.6919C132.865 58.3639 132.678 58.0748 132.392 57.8247C132.101 57.5745 131.72 57.3466 131.249 57.1465C130.784 56.9464 130.252 56.7462 129.663 56.5517C129.19 56.4016 128.677 56.1904 128.123 55.9235C127.569 55.6567 127.116 55.3454 126.763 54.9896C126.383 54.6061 126.115 54.1391 125.95 53.5888C125.788 53.0329 125.805 52.3825 125.998 51.6321C126.336 50.3202 127.113 49.2028 128.321 48.2912C129.534 47.3795 130.957 46.9237 132.597 46.9237C133.225 46.9237 133.85 47.0015 134.465 47.1627C135.079 47.3239 135.564 47.5129 135.918 47.7353L136.508 46.8903H137.681L136.595 52.0601H135.472C135.539 50.915 135.289 49.9866 134.717 49.2695C134.151 48.5524 133.322 48.1911 132.238 48.1911C131.348 48.1911 130.591 48.4135 129.972 48.8526C129.346 49.2973 128.953 49.831 128.791 50.4591C128.665 50.9483 128.644 51.3541 128.732 51.6821C128.815 52.0045 128.994 52.2824 129.274 52.5104C129.541 52.7272 129.899 52.9328 130.346 53.1218C130.792 53.3108 131.342 53.5276 132.008 53.7667C132.667 53.9946 133.271 54.2614 133.831 54.5672C134.388 54.8673 134.823 55.2064 135.14 55.5733V55.5733ZM121.618 59.6647C120.616 60.9432 119.452 61.9661 118.122 62.7276C116.797 63.4891 115.405 63.8671 113.937 63.8671C112.642 63.8671 111.567 63.6393 110.717 63.1834C109.862 62.7276 109.221 62.105 108.788 61.3268C108.362 60.543 108.124 59.6313 108.087 58.5862C108.044 57.5467 108.171 56.4461 108.472 55.2787C108.74 54.2392 109.17 53.2163 109.757 52.2102C110.349 51.204 111.065 50.3035 111.917 49.4974C112.733 48.7248 113.661 48.1022 114.699 47.6296C115.738 47.1571 116.827 46.9237 117.966 46.9237C119.139 46.9237 120.098 47.1071 120.836 47.4796C121.581 47.8464 122.129 48.3523 122.481 48.9916C122.826 49.5975 123.013 50.3146 123.046 51.1373C123.079 51.96 122.971 52.855 122.722 53.8223L122.446 54.8951H111.806C111.534 55.9513 111.388 56.9075 111.368 57.7635C111.347 58.6196 111.475 59.3756 111.74 60.0316C112 60.6597 112.429 61.1545 113.018 61.5213C113.609 61.8827 114.379 62.0661 115.324 62.0661C116.291 62.0661 117.182 61.8438 117.999 61.3935C118.821 60.9432 119.702 60.1316 120.659 58.9642L121.618 59.6647V59.6647ZM119.596 53.5276C119.752 52.9217 119.869 52.2713 119.941 51.582C120.02 50.8872 120.002 50.309 119.893 49.8476C119.772 49.3473 119.531 48.9415 119.178 48.6302C118.826 48.3134 118.305 48.1577 117.621 48.1577C116.476 48.1577 115.403 48.6302 114.41 49.5753C113.409 50.5258 112.66 51.8377 112.158 53.5276H119.596V53.5276ZM104.36 63.4336H96.5163L96.7911 62.3663C97.047 62.3441 97.3195 62.3218 97.6103 62.294C97.9009 62.2662 98.1443 62.2273 98.3421 62.1717C98.6736 62.0717 98.9459 61.8993 99.1589 61.6548C99.372 61.4102 99.5314 61.0933 99.6316 60.7042L104.425 42.0874C104.525 41.6983 104.536 41.3314 104.458 40.9868C104.373 40.6477 104.227 40.3753 104.004 40.1807C103.843 40.0529 103.513 39.9306 103.023 39.825C102.529 39.7138 102.129 39.6471 101.818 39.6248L102.084 38.5909L108.228 38.2184L108.393 38.463L102.717 60.5096C102.62 60.8876 102.612 61.1989 102.688 61.4435C102.764 61.6881 102.943 61.8771 103.227 62.005C103.437 62.1161 103.655 62.1995 103.875 62.2496C104.095 62.3051 104.346 62.3441 104.635 62.3663L104.36 63.4336V63.4336ZM95.3304 63.139L89.6452 63.5002L89.4592 63.2724L89.8457 61.7715L89.7249 61.7437C88.9962 62.3719 88.1682 62.8888 87.2299 63.2946C86.2971 63.7004 85.3896 63.9004 84.5113 63.9004C83.5996 63.9004 82.7687 63.6948 82.0226 63.289C81.2766 62.8833 80.6806 62.3051 80.2428 61.5658C79.7953 60.8209 79.5172 59.9148 79.4167 58.8586C79.3148 57.808 79.4264 56.6406 79.7527 55.3732C80.0533 54.2058 80.5367 53.1052 81.206 52.0601C81.8809 51.015 82.666 50.1034 83.5737 49.3196C84.4228 48.5913 85.3832 48.0132 86.458 47.5741C87.5313 47.1405 88.5655 46.9237 89.5661 46.9237C90.3165 46.9237 91.026 47.0182 91.7 47.2072C92.374 47.3962 92.9281 47.6408 93.3747 47.9354L94.8132 42.3487C94.9305 41.8929 94.9656 41.4759 94.9073 41.0979C94.8531 40.7255 94.7148 40.442 94.4926 40.2474C94.2412 40.0362 93.8726 39.8917 93.38 39.7972C92.8873 39.7027 92.3486 39.6359 91.7597 39.5915L92.0173 38.5909L98.6671 38.2184L98.8487 38.463L93.2726 60.1205C93.1753 60.4985 93.1644 60.8209 93.2458 61.0877C93.3217 61.3546 93.4742 61.5825 93.7105 61.7659C93.8833 61.8938 94.162 61.9772 94.5425 62.0105C94.9286 62.0439 95.2785 62.0661 95.6051 62.0717L95.3304 63.139V63.139ZM90.1816 60.3373L92.6076 50.915C92.5971 50.6315 92.5299 50.3313 92.4198 50.0033C92.3097 49.6753 92.1424 49.3751 91.9179 49.1028C91.6768 48.8304 91.3615 48.608 90.9863 48.4246C90.6097 48.2467 90.1378 48.1577 89.5708 48.1577C88.9204 48.1577 88.2771 48.3245 87.645 48.6636C87.0074 49.0027 86.3992 49.4863 85.8095 50.1145C85.2518 50.726 84.7346 51.5042 84.2592 52.4437C83.7839 53.3831 83.398 54.4282 83.1046 55.5678C82.8684 56.485 82.7442 57.3133 82.7247 58.0581C82.7052 58.803 82.8209 59.4979 83.0663 60.1427C83.2882 60.7487 83.6501 61.2434 84.1448 61.6103C84.6437 61.9827 85.2969 62.1662 86.1141 62.1662C86.9813 62.1662 87.747 61.9772 88.4184 61.5936C89.0827 61.2156 89.6751 60.7931 90.1816 60.3373V60.3373ZM75.7094 63.4336H67.8547L68.1295 62.3663C68.3854 62.3441 68.6635 62.3218 68.9694 62.2996C69.2698 62.2773 69.5314 62.2329 69.7416 62.1717C70.0732 62.0717 70.3399 61.8993 70.5474 61.6548C70.7605 61.4102 70.9143 61.0933 71.0145 60.7042L73.1442 52.4325C73.4391 51.2874 73.3984 50.4091 73.0195 49.7865C72.6392 49.1695 72.0689 48.8582 71.2962 48.8582C70.7236 48.8582 70.1726 48.9471 69.6488 49.125C69.1235 49.3084 68.6452 49.5252 68.2055 49.7865C67.7853 50.0367 67.4331 50.3035 67.1419 50.5925C66.8563 50.8816 66.6475 51.1095 66.5016 51.2874L64.1199 60.5374C64.024 60.9099 64.0246 61.21 64.1117 61.4546C64.2002 61.6937 64.3809 61.8771 64.6538 62.005C64.8531 62.1161 65.0762 62.1995 65.3301 62.2496C65.5826 62.3051 65.8506 62.3441 66.1227 62.3663L65.8479 63.4336H57.9766L58.2514 62.3663C58.5074 62.3441 58.7743 62.3218 59.0413 62.2996C59.3139 62.2773 59.5574 62.2384 59.7691 62.1717C60.1006 62.0717 60.3659 61.9049 60.5734 61.6603C60.7865 61.4157 60.9403 61.0989 61.0419 60.7042L63.5924 50.7982C63.6883 50.4258 63.6977 50.0867 63.6209 49.7809C63.5398 49.4696 63.3874 49.2195 63.154 49.0249C62.9827 48.8915 62.7624 48.797 62.4946 48.7359C62.2254 48.6803 61.9367 48.6358 61.6144 48.6136L61.8892 47.5463L67.3285 47.1905L67.4977 47.4184L66.9209 49.6586H67.0043C67.3273 49.3974 67.7354 49.0861 68.219 48.7192C68.7011 48.3579 69.1495 48.0632 69.5528 47.8353C70.0204 47.5741 70.5542 47.3573 71.1545 47.1849C71.7492 47.0126 72.4002 46.9237 73.0895 46.9237C74.6349 46.9237 75.65 47.4073 76.1473 48.369C76.639 49.3307 76.6822 50.6092 76.2714 52.2046L74.1173 60.5708C74.0186 60.9543 74.0066 61.2601 74.0744 61.4935C74.1476 61.727 74.3228 61.9105 74.6012 62.0383C74.8338 62.1495 75.0417 62.2273 75.2207 62.2662C75.3983 62.3107 75.6509 62.3441 75.9842 62.3663L75.7094 63.4336V63.4336ZM56.4668 63.1445C55.9067 63.3334 55.4234 63.4836 55.0055 63.5948C54.592 63.7115 54.1441 63.7671 53.6549 63.7671C52.8044 63.7671 52.1777 63.5669 51.7748 63.1667C51.3721 62.7665 51.2 62.1828 51.2529 61.4157H51.1584C50.2507 62.1995 49.34 62.7999 48.4225 63.2111C47.5035 63.6281 46.4778 63.8337 45.3383 63.8337C44.132 63.8337 43.2313 63.4669 42.6491 62.7276C42.0612 61.9883 41.9211 61.021 42.2288 59.8259C42.3891 59.2033 42.6197 58.6529 42.9181 58.1638C43.2163 57.6746 43.5906 57.2354 44.0425 56.8407C44.3924 56.5183 44.8281 56.2293 45.3386 55.9736C45.8492 55.7178 46.3191 55.5122 46.7523 55.3621C47.2888 55.1786 48.367 54.834 49.9911 54.3337C51.6153 53.8334 52.7217 53.4443 53.3172 53.1608L53.7294 51.5598C53.7666 51.4153 53.802 51.1484 53.8494 50.7482C53.8914 50.3479 53.8608 49.9699 53.7523 49.6142C53.6385 49.2139 53.416 48.8693 53.0931 48.5691C52.7742 48.2745 52.2459 48.1244 51.5121 48.1244C51.0118 48.1244 50.5178 48.2078 50.0469 48.3745C49.5703 48.5413 49.2243 48.7192 48.9992 48.9026C48.9434 49.1194 48.9174 49.4363 48.9087 49.8588C48.907 50.2757 48.8568 50.6648 48.7652 51.0206C48.6678 51.3986 48.4068 51.7432 47.9861 52.0601C47.5669 52.3714 47.0543 52.527 46.4484 52.527C45.9092 52.527 45.559 52.3325 45.4077 51.9489C45.2507 51.5653 45.233 51.1373 45.3561 50.6592C45.4849 50.1589 45.7845 49.6864 46.252 49.2306C46.7252 48.7748 47.2911 48.369 47.9497 48.0132C48.5176 47.7075 49.1726 47.4518 49.9274 47.2405C50.6767 47.0293 51.3821 46.9237 52.0491 46.9237C52.9608 46.9237 53.7456 46.9848 54.3908 47.1127C55.0375 47.235 55.5859 47.5018 56.0344 47.9187C56.4873 48.319 56.7694 48.8637 56.881 49.553C56.9927 50.2423 56.9081 51.1318 56.6291 52.2157C56.2297 53.7667 55.8581 55.1453 55.5156 56.346C55.1745 57.5412 54.82 58.8531 54.4536 60.2761C54.3448 60.6986 54.3298 61.0377 54.4155 61.2879C54.497 61.5325 54.665 61.7437 54.9249 61.9216C55.0618 62.0161 55.3088 62.0717 55.6561 62.0828C56.0091 62.0939 56.3689 62.0995 56.7358 62.0995L56.4668 63.1445V63.1445ZM52.9984 54.5282C52 54.8006 51.1253 55.0675 50.359 55.3232C49.5969 55.5844 48.8676 55.9124 48.1671 56.3015C47.5264 56.674 46.9867 57.1076 46.5396 57.6134C46.0925 58.1193 45.7822 58.7197 45.6034 59.4145C45.3715 60.3151 45.4402 60.9766 45.804 61.399C46.1677 61.8215 46.7136 62.0328 47.4418 62.0328C48.2145 62.0328 48.9414 61.8438 49.6266 61.4713C50.3117 61.0989 50.9209 60.6541 51.4529 60.1427L52.9984 54.5282V54.5282ZM33.3447 63.8671C31.0155 63.8671 29.3966 63.0945 28.4757 61.5547C27.5561 60.0093 27.4326 57.9414 28.101 55.3454C28.3916 54.2169 28.8414 53.1608 29.445 52.1768C30.054 51.1929 30.7945 50.3035 31.6747 49.4974C32.5184 48.7248 33.4792 48.1022 34.5681 47.6296C35.657 47.1571 36.7733 46.9237 37.9129 46.9237C39.4916 46.9237 40.6728 47.3017 41.4676 48.0577C42.2625 48.8137 42.491 49.8476 42.1546 51.154C42.0143 51.6988 41.7635 52.1768 41.3934 52.5993C41.0249 53.0162 40.5368 53.2275 39.942 53.2275C39.2971 53.2275 38.844 53.0663 38.5726 52.7383C38.3069 52.4103 38.222 52.049 38.325 51.6487C38.451 51.1595 38.6479 50.6537 38.9089 50.1367C39.1755 49.6197 39.3436 49.2473 39.4274 49.0083C39.3201 48.6692 39.0898 48.4412 38.7348 48.3301C38.3758 48.2133 37.9787 48.1577 37.534 48.1577C37.0115 48.1577 36.4881 48.2689 35.9583 48.4913C35.4286 48.7136 34.8668 49.125 34.269 49.7198C33.7299 50.259 33.213 50.9928 32.7252 51.9156C32.2376 52.8383 31.8319 53.939 31.5027 55.2175C30.9831 57.2354 31.0096 58.8809 31.5769 60.1538C32.1441 61.4268 33.1524 62.0661 34.6089 62.0661C35.6651 62.0661 36.6093 61.8104 37.4524 61.299C38.2956 60.7876 39.1546 60.0204 40.024 58.9976L40.893 59.6813C39.8438 60.971 38.6369 61.9883 37.2708 62.7387C35.899 63.4891 34.5899 63.8671 33.3447 63.8671V63.8671ZM89.7335 17.3701C89.4249 17.3812 88.9631 17.4479 88.3493 17.5647C87.7286 17.687 87.2047 17.8648 86.7763 18.1039C86.3395 18.354 85.9506 18.871 85.6114 19.6492C85.2706 20.433 84.9521 21.3891 84.6616 22.5175L82.0739 32.5676C81.7433 33.8517 81.1902 34.9634 80.4188 35.9084C79.6419 36.8534 78.7411 37.6316 77.7179 38.2375C76.7102 38.8267 75.6968 39.2436 74.6805 39.4993C73.664 39.755 72.725 39.8829 71.8579 39.8829C70.4682 39.8829 69.2758 39.6995 68.285 39.3381C67.2954 38.9713 66.5098 38.4821 65.9293 37.8651C65.3669 37.2425 64.9984 36.5365 64.8376 35.7361C64.6699 34.9412 64.7011 34.1074 64.9259 33.2346L68.4438 19.5714C68.5426 19.1878 68.5629 18.871 68.501 18.6153C68.4445 18.3596 68.2489 18.1261 67.9268 17.9093C67.6944 17.7537 67.3813 17.6314 66.9817 17.5424C66.5781 17.4479 66.2476 17.3924 65.981 17.3701L66.2815 16.2028H75.9093L75.6088 17.3701C75.3001 17.3812 74.9037 17.4313 74.4209 17.5146C73.9366 17.6036 73.5761 17.687 73.3407 17.7592C72.9395 17.8926 72.6334 18.1094 72.4339 18.4096C72.2273 18.7153 72.0803 19.0489 71.9888 19.4046L68.7012 32.1729C68.5424 32.7899 68.4416 33.4403 68.4059 34.1185C68.3647 34.7966 68.4698 35.4248 68.7238 36.014C68.9932 36.6088 69.4398 37.098 70.0707 37.476C70.7001 37.8595 71.652 38.0485 72.9194 38.0485C74.1145 38.0485 75.1638 37.8595 76.0741 37.476C76.9774 37.098 77.7455 36.5977 78.3713 35.9807C78.9663 35.397 79.442 34.78 79.7901 34.1407C80.138 33.5015 80.3986 32.8567 80.5675 32.2007L83.0063 22.7287C83.3168 21.5225 83.4813 20.5386 83.5065 19.7715C83.5316 19.0044 83.4047 18.5041 83.1271 18.2651C82.8194 17.9927 82.3568 17.7815 81.7395 17.6314C81.1181 17.4757 80.6392 17.3924 80.3003 17.3701L80.6008 16.2028H90.034L89.7335 17.3701V17.3701ZM65.4585 17.3701C65.1721 17.3812 64.8173 17.4424 64.387 17.5591C63.9526 17.6703 63.5888 17.8093 63.2861 17.9705C62.8549 18.1984 62.4845 18.493 62.1691 18.8543C61.8551 19.2101 61.5296 19.6325 61.1813 20.1217C60.0137 21.8505 58.2259 24.5409 55.8348 28.193C53.438 31.845 50.9568 35.6527 48.3965 39.6161H47.0458C46.5658 35.4137 46.0957 31.3669 45.6441 27.4648C45.1966 23.5681 44.884 20.9388 44.7136 19.5714C44.673 19.2323 44.5766 18.9377 44.4201 18.682C44.2691 18.4263 44.0486 18.1817 43.746 17.9538C43.4986 17.7703 43.212 17.6314 42.8735 17.5424C42.5422 17.4479 42.2229 17.3924 41.9285 17.3701L42.229 16.2028H51.7844L51.4839 17.3701C50.6609 17.4146 49.9516 17.4924 49.3642 17.6147C48.7728 17.7314 48.4389 17.9482 48.3616 18.2484C48.3302 18.3707 48.3167 18.5097 48.3196 18.6709C48.3156 18.8376 48.3216 18.9655 48.3292 19.0655C48.4561 20.1273 48.6654 21.8616 48.9462 24.2685C49.2284 26.6699 49.6253 30.094 50.1438 34.5354C51.4887 32.5287 53.0448 30.1551 54.8274 27.4203C56.6058 24.6799 57.8108 22.8066 58.4466 21.7838C59.0571 20.7943 59.4444 20.1106 59.5973 19.7326C59.7572 19.349 59.8637 19.0433 59.9252 18.8043C59.9896 18.5541 59.9329 18.3429 59.7535 18.1761C59.5741 18.0094 59.3166 17.8648 58.9813 17.7426C58.6472 17.6369 58.3072 17.5536 57.9492 17.498C57.5952 17.4479 57.2342 17.4035 56.8592 17.3701L57.1597 16.2028H65.759L65.4585 17.3701V17.3701Z" fill="url(#paint0_linear_78_11)"/>
</g>
<defs>
<linearGradient id="paint0_linear_78_11" x1="16.5168" y1="38.892" x2="137.681" y2="38.892" gradientUnits="userSpaceOnUse">
<stop stop-color="#B98128"/>
<stop offset="0.14902" stop-color="#B98128"/>
<stop offset="0.611765" stop-color="#FAE27B"/>
<stop offset="0.721569" stop-color="#FDF3AB"/>
<stop offset="0.839216" stop-color="#FAE27B"/>
<stop offset="1" stop-color="#B98128"/>
</linearGradient>
<clipPath id="clip0_78_11">
<rect width="154" height="79" fill="white"/>
</clipPath>
</defs>
</svg>
