<svg width="44" height="17" viewBox="0 0 44 17" fill="none" xmlns="http://www.w3.org/2000/svg">
<path d="M0.14375 9C0.14375 7.88 0.565083 6.92533 1.40775 6.136C2.26108 5.336 3.31708 4.936 4.57575 4.936C5.83442 4.936 6.85842 5.26667 7.64775 5.928C8.44775 6.57867 8.84775 7.60267 8.84775 9C8.84775 10.12 8.42108 11.08 7.56775 11.88C6.72508 12.6693 5.67442 13.064 4.41575 13.064C3.15708 13.064 2.12775 12.7387 1.32775 12.088C0.538417 11.4267 0.14375 10.3973 0.14375 9ZM1.42375 9C1.42375 10.344 1.70642 11.336 2.27175 11.976C2.83708 12.616 3.56242 12.936 4.44775 12.936C5.33308 12.936 6.07442 12.552 6.67175 11.784C7.26908 11.016 7.56775 10.088 7.56775 9C7.56775 7.656 7.28508 6.664 6.71975 6.024C6.15442 5.384 5.42908 5.064 4.54375 5.064C3.65842 5.064 2.91708 5.448 2.31975 6.216C1.72242 6.984 1.42375 7.912 1.42375 9ZM19.9088 4.264C20.9648 4.264 21.8128 4.632 22.4528 5.368C23.1034 6.104 23.4288 7.21333 23.4288 8.696C23.4288 9.66667 23.2794 10.488 22.9808 11.16C22.6927 11.8213 22.2821 12.3227 21.7488 12.664C21.2261 12.9947 20.6074 13.16 19.8928 13.16C19.4554 13.16 19.0661 13.1013 18.7248 12.984C18.3834 12.8667 18.0901 12.7173 17.8448 12.536C17.6101 12.344 17.4074 12.136 17.2368 11.912H17.1408C17.1621 12.0933 17.1834 12.3227 17.2048 12.6C17.2261 12.8773 17.2368 13.1173 17.2368 13.32V16.84H15.8288V4.424H16.9808L17.1728 5.592H17.2368C17.4074 5.34667 17.6101 5.12267 17.8448 4.92C18.0901 4.71733 18.3781 4.55733 18.7088 4.44C19.0501 4.32267 19.4501 4.264 19.9088 4.264ZM19.6528 5.448C19.0768 5.448 18.6128 5.56 18.2608 5.784C17.9088 5.99733 17.6528 6.32267 17.4928 6.76C17.3328 7.19733 17.2474 7.752 17.2368 8.424V8.696C17.2368 9.4 17.3114 9.99733 17.4608 10.488C17.6101 10.9787 17.8608 11.352 18.2128 11.608C18.5754 11.864 19.0661 11.992 19.6848 11.992C20.2074 11.992 20.6341 11.848 20.9648 11.56C21.3061 11.272 21.5568 10.8827 21.7168 10.392C21.8874 9.89067 21.9728 9.32 21.9728 8.68C21.9728 7.69867 21.7808 6.91467 21.3968 6.328C21.0234 5.74133 20.4421 5.448 19.6528 5.448ZM24.1723 4.424H25.6763L27.5323 9.304C27.6389 9.592 27.7349 9.86933 27.8203 10.136C27.9163 10.4027 28.0016 10.664 28.0763 10.92C28.1509 11.1653 28.2096 11.4053 28.2523 11.64H28.3163C28.3803 11.3733 28.4816 11.0267 28.6203 10.6C28.7589 10.1627 28.9029 9.72533 29.0523 9.288L30.7963 4.424H32.3163L28.6203 14.184C28.4176 14.7173 28.1776 15.1813 27.9003 15.576C27.6336 15.9813 27.3029 16.2907 26.9083 16.504C26.5243 16.728 26.0549 16.84 25.5003 16.84C25.2443 16.84 25.0203 16.824 24.8283 16.792C24.6363 16.7707 24.4709 16.744 24.3323 16.712V15.592C24.4496 15.6133 24.5883 15.6347 24.7483 15.656C24.9189 15.6773 25.0949 15.688 25.2763 15.688C25.6069 15.688 25.8896 15.624 26.1243 15.496C26.3696 15.3787 26.5776 15.2027 26.7483 14.968C26.9189 14.744 27.0629 14.4773 27.1803 14.168L27.6283 13.032L24.1723 4.424ZM33.2245 7.848C33.2245 6.6 33.3472 5.53867 33.5925 4.664C33.8485 3.77867 34.2378 3.07467 34.7605 2.552C35.2938 2.01867 35.9765 1.66133 36.8085 1.48C37.5018 1.33067 38.1792 1.19733 38.8405 1.08C39.5018 0.962666 40.1205 0.855999 40.6965 0.759999L40.9365 1.992C40.6592 2.03467 40.3498 2.088 40.0085 2.152C39.6672 2.20533 39.3205 2.264 38.9685 2.328C38.6165 2.38133 38.2752 2.44 37.9445 2.504C37.6245 2.55733 37.3418 2.61067 37.0965 2.664C36.7445 2.73867 36.4298 2.86667 36.1525 3.048C35.8752 3.21867 35.6352 3.45333 35.4325 3.752C35.2405 4.05067 35.0858 4.41867 34.9685 4.856C34.8512 5.29333 34.7818 5.81067 34.7605 6.408H34.8565C35.0058 6.20533 35.2085 5.99733 35.4645 5.784C35.7312 5.57067 36.0458 5.38933 36.4085 5.24C36.7818 5.09067 37.2032 5.016 37.6725 5.016C38.4192 5.016 39.0378 5.18133 39.5285 5.512C40.0298 5.832 40.4032 6.28 40.6485 6.856C40.9045 7.432 41.0325 8.104 41.0325 8.872C41.0325 9.82133 40.8672 10.616 40.5365 11.256C40.2058 11.896 39.7472 12.376 39.1605 12.696C38.5738 13.0053 37.8912 13.16 37.1125 13.16C36.5258 13.16 35.9925 13.048 35.5125 12.824C35.0325 12.5893 34.6218 12.248 34.2805 11.8C33.9392 11.352 33.6778 10.7973 33.4965 10.136C33.3152 9.47467 33.2245 8.712 33.2245 7.848ZM37.2245 11.992C37.6938 11.992 38.0992 11.896 38.4405 11.704C38.7925 11.512 39.0645 11.1973 39.2565 10.76C39.4485 10.3227 39.5445 9.74133 39.5445 9.016C39.5445 8.14133 39.3792 7.45333 39.0485 6.952C38.7285 6.44 38.1952 6.184 37.4485 6.184C36.9792 6.184 36.5525 6.29067 36.1685 6.504C35.7845 6.70667 35.4645 6.94133 35.2085 7.208C34.9525 7.47467 34.7712 7.69867 34.6645 7.88C34.6645 8.40267 34.7018 8.90933 34.7765 9.4C34.8512 9.89067 34.9792 10.3333 35.1605 10.728C35.3525 11.112 35.6138 11.4213 35.9445 11.656C36.2858 11.88 36.7125 11.992 37.2245 11.992ZM42.8506 13.064C42.712 13.064 42.5893 13.016 42.4826 12.92C42.3866 12.8133 42.3386 12.6907 42.3386 12.552C42.3386 12.4027 42.3866 12.28 42.4826 12.184C42.5786 12.088 42.696 12.04 42.8346 12.04C42.984 12.04 43.1066 12.0933 43.2026 12.2C43.3093 12.296 43.3626 12.4133 43.3626 12.552C43.3626 12.6907 43.3093 12.8133 43.2026 12.92C43.1066 13.016 42.9893 13.064 42.8506 13.064Z" fill="#8C7FDE" fill-opacity="0.7"/>
</svg>
