<svg width="32" height="32" viewBox="0 0 32 32" fill="none" xmlns="http://www.w3.org/2000/svg">
<path d="M15.9995 18.485C17.369 18.485 18.4855 17.3705 18.4855 16C18.4855 15.459 18.3085 14.9595 18.015 14.5515C17.563 13.9255 16.829 13.515 16 13.515C15.1705 13.515 14.437 13.925 13.9845 14.551C13.6905 14.959 13.515 15.4585 13.5145 15.9995C13.514 17.37 14.6295 18.485 15.9995 18.485Z" fill="white"/>
<path d="M21.426 12.96V10.877V10.567L21.114 10.568L19.032 10.5745L19.0405 12.968L21.426 12.96Z" fill="white"/>
<path d="M16 3.58701C9.15548 3.58701 3.58698 9.15551 3.58698 16C3.58698 22.8445 9.15548 28.413 16 28.413C22.8445 28.413 28.413 22.8445 28.413 16C28.413 9.15551 22.8445 3.58701 16 3.58701ZM23.0595 14.5515V20.3315C23.0595 21.837 21.8355 23.0605 20.331 23.0605H11.669C10.164 23.0605 8.94048 21.837 8.94048 20.3315V14.5515V11.6695C8.94048 10.1645 10.164 8.94101 11.669 8.94101H20.3305C21.8355 8.94101 23.0595 10.1645 23.0595 11.6695V14.5515Z" fill="white"/>
<path d="M19.861 16C19.861 18.1285 18.1295 19.8615 16 19.8615C13.8705 19.8615 12.139 18.1285 12.139 16C12.139 15.488 12.241 14.9985 12.423 14.5515H10.3155V20.3315C10.3155 21.0785 10.922 21.6835 11.6685 21.6835H20.33C21.0765 21.6835 21.683 21.0785 21.683 20.3315V14.5515H19.575C19.7575 14.9985 19.861 15.488 19.861 16Z" fill="white"/>
</svg>
