<svg width="37" height="27" viewBox="0 0 37 27" fill="none" xmlns="http://www.w3.org/2000/svg">
<g clip-path="url(#clip0_3_46)">
<path d="M32.7119 7.22354H11.6572C10.5938 7.22354 9.73438 6.1794 9.73438 4.90323C9.73438 3.62706 10.5938 2.58292 11.6572 2.58292H32.7119C33.7754 2.58292 34.6348 3.62706 34.6348 4.90323C34.6348 6.1794 33.7754 7.22354 32.7119 7.22354Z" fill="white"/>
<path d="M5.09375 7.86162C6.6066 7.86162 7.83301 6.5371 7.83301 4.90322C7.83301 3.26934 6.6066 1.94482 5.09375 1.94482C3.5809 1.94482 2.35449 3.26934 2.35449 4.90322C2.35449 6.5371 3.5809 7.86162 5.09375 7.86162Z" fill="white"/>
<path d="M32.7119 15.8203H11.6572C10.5938 15.8203 9.73438 14.7761 9.73438 13.5C9.73438 12.2238 10.5938 11.1797 11.6572 11.1797H32.7119C33.7754 11.1797 34.6348 12.2238 34.6348 13.5C34.6348 14.7761 33.7754 15.8203 32.7119 15.8203Z" fill="white"/>
<path d="M5.09375 16.4584C6.6066 16.4584 7.83301 15.1339 7.83301 13.5C7.83301 11.8661 6.6066 10.5416 5.09375 10.5416C3.5809 10.5416 2.35449 11.8661 2.35449 13.5C2.35449 15.1339 3.5809 16.4584 5.09375 16.4584Z" fill="white"/>
<path d="M32.7119 24.4171H11.6572C10.5938 24.4171 9.73438 23.3729 9.73438 22.0967C9.73438 20.8206 10.5938 19.7764 11.6572 19.7764H32.7119C33.7754 19.7764 34.6348 20.8206 34.6348 22.0967C34.6348 23.3729 33.7754 24.4171 32.7119 24.4171Z" fill="white"/>
<path d="M5.09375 25.0551C6.6066 25.0551 7.83301 23.7306 7.83301 22.0967C7.83301 20.4629 6.6066 19.1383 5.09375 19.1383C3.5809 19.1383 2.35449 20.4629 2.35449 22.0967C2.35449 23.7306 3.5809 25.0551 5.09375 25.0551Z" fill="white"/>
</g>
<defs>
<clipPath id="clip0_3_46">
<rect width="37" height="27" fill="white"/>
</clipPath>
</defs>
</svg>
